<svg id="svg" version="1.1" xmlns="http://www.w3.org/2000/svg" xmlns:xlink="http://www.w3.org/1999/xlink" width="400" height="300.1124859392576" viewBox="0, 0, 400,300.1124859392576"><g id="svgg"><path id="path0" d="M111.765 30.959 C 111.740 41.834,111.687 85.797,111.647 128.655 L 111.575 206.579 130.760 206.455 C 141.311 206.387,186.256 206.323,230.638 206.313 L 311.331 206.295 311.285 114.565 C 311.260 64.113,311.157 22.480,311.057 22.047 C 309.951 17.255,305.295 12.553,300.814 11.704 C 300.015 11.552,268.500 11.475,206.752 11.474 C 155.678 11.473,113.423 11.408,112.851 11.330 L 111.811 11.187 111.765 30.959 M251.420 54.690 C 251.612 55.001,251.580 70.142,251.382 72.497 L 251.235 74.241 230.339 74.241 L 209.442 74.241 209.452 87.067 L 209.463 99.893 227.172 99.885 L 244.882 99.877 244.941 109.556 L 244.999 119.235 227.224 119.235 L 209.449 119.235 209.449 141.054 L 209.449 162.873 195.932 162.932 C 188.497 162.965,182.372 162.950,182.321 162.898 C 182.269 162.847,182.227 138.423,182.227 108.624 L 182.227 54.443 216.747 54.443 C 241.593 54.443,251.310 54.512,251.420 54.690 " stroke="none" fill="#fc6c04" fill-rule="evenodd"></path><path id="path1" d="M311.477 54.663 C 311.402 54.783,311.353 80.523,311.366 111.862 C 311.380 143.201,311.384 177.320,311.376 187.683 L 311.361 206.524 211.384 206.524 L 111.407 206.524 101.823 212.291 L 92.238 218.057 92.238 247.600 L 92.238 277.142 92.793 278.897 C 94.180 283.287,97.602 286.794,101.912 288.242 L 103.375 288.734 217.042 288.813 L 330.709 288.893 330.709 171.809 L 330.709 54.724 330.006 54.584 C 328.820 54.347,311.627 54.420,311.477 54.663 M179.190 225.851 C 185.280 227.332,188.295 230.561,188.487 235.808 C 188.653 240.354,186.656 243.100,182.131 244.548 L 181.248 244.830 182.475 245.210 C 188.366 247.033,191.031 251.784,189.656 258.015 C 187.220 269.057,165.913 271.311,159.892 261.164 C 159.014 259.684,157.757 256.116,158.021 255.852 C 158.406 255.467,167.604 255.501,167.604 255.887 C 167.604 258.116,170.657 260.288,173.791 260.288 C 177.449 260.288,179.511 258.459,179.598 255.137 C 179.716 250.631,177.897 249.074,172.272 248.870 L 169.404 248.766 169.404 245.332 L 169.404 241.898 172.292 241.808 C 177.450 241.647,179.711 239.015,178.171 234.965 C 176.703 231.105,169.682 231.901,168.518 236.059 L 168.220 237.120 163.539 237.120 C 158.190 237.120,158.473 237.250,159.077 235.071 C 161.153 227.581,169.870 223.585,179.190 225.851 M215.900 225.988 C 221.212 227.336,224.736 230.894,225.137 235.316 L 225.260 236.680 220.820 236.619 L 216.381 236.558 216.082 235.689 C 215.144 232.957,211.107 231.654,207.929 233.056 C 205.430 234.158,204.724 235.784,204.724 240.434 L 204.724 243.441 205.568 242.765 C 212.296 237.376,223.644 240.848,225.752 248.941 C 227.582 255.966,224.699 262.937,218.776 265.809 C 209.061 270.521,197.003 266.194,194.929 257.251 C 194.319 254.622,194.550 237.084,195.221 235.096 C 197.848 227.303,206.339 223.564,215.900 225.988 M249.950 225.427 C 256.972 226.274,261.257 229.806,262.694 235.931 C 263.214 238.151,263.292 254.462,262.793 256.805 C 261.331 263.666,255.787 267.528,247.357 267.559 C 239.523 267.588,234.465 264.434,232.236 258.131 L 231.609 256.355 231.609 246.682 C 231.609 238.135,231.655 236.837,232.006 235.546 C 233.580 229.757,238.048 226.193,244.657 225.456 C 247.213 225.171,247.805 225.168,249.950 225.427 M246.169 232.633 C 243.915 233.082,242.568 234.442,241.937 236.904 C 241.402 238.995,241.576 255.215,242.151 256.730 C 243.752 260.953,250.390 261.300,252.206 257.255 C 253.061 255.351,253.411 239.425,252.658 236.670 C 251.815 233.586,249.283 232.011,246.169 232.633 M209.085 247.683 C 208.036 247.933,206.518 248.719,205.568 249.504 L 204.724 250.201 204.726 252.941 C 204.728 258.258,206.093 259.961,210.344 259.950 C 214.413 259.940,216.046 257.966,216.008 253.107 C 215.973 248.558,213.508 246.627,209.085 247.683 " stroke="none" fill="#943c04" fill-rule="evenodd"></path><path id="path2" d="M110.292 11.951 C 109.767 12.193,109.336 12.505,109.336 12.644 C 109.336 12.784,109.273 12.835,109.195 12.757 C 109.019 12.581,107.762 13.215,107.762 13.480 C 107.762 13.587,107.532 13.732,107.251 13.803 C 106.970 13.873,106.540 14.118,106.295 14.346 C 106.050 14.574,105.791 14.755,105.719 14.748 C 105.469 14.724,103.937 15.627,103.937 15.799 C 103.937 15.895,103.785 15.973,103.600 15.973 C 103.414 15.973,103.262 16.067,103.262 16.183 C 103.262 16.298,103.043 16.462,102.775 16.547 C 102.077 16.769,85.200 26.964,84.993 27.289 C 84.899 27.437,84.818 27.458,84.814 27.334 C 84.810 27.184,84.752 27.184,84.642 27.334 C 84.551 27.458,83.884 27.863,83.160 28.234 C 82.435 28.605,81.583 29.148,81.265 29.441 C 80.947 29.733,80.564 29.991,80.415 30.012 C 80.055 30.065,75.724 32.676,75.628 32.898 C 75.587 32.993,75.458 33.071,75.341 33.071 C 75.120 33.071,72.187 34.855,71.991 35.109 C 71.929 35.189,71.513 35.426,71.065 35.636 C 70.618 35.846,70.041 36.214,69.784 36.454 L 69.315 36.891 69.348 134.310 C 69.366 187.890,69.436 231.702,69.505 231.669 C 69.607 231.619,71.744 230.314,73.116 229.464 C 73.301 229.349,76.187 227.617,79.528 225.616 C 82.868 223.615,85.636 221.892,85.677 221.787 C 85.718 221.683,85.855 221.597,85.981 221.597 C 86.107 221.597,87.541 220.805,89.168 219.837 C 90.795 218.869,93.478 217.282,95.131 216.310 C 96.784 215.338,98.277 214.402,98.449 214.229 C 98.622 214.057,98.763 213.970,98.763 214.036 C 98.763 214.102,99.609 213.628,100.643 212.983 C 101.678 212.339,104.509 210.647,106.934 209.224 L 111.344 206.637 111.393 132.283 C 111.419 91.389,111.432 57.728,111.420 57.480 C 111.346 55.898,111.368 55.341,111.542 54.395 C 111.649 53.811,111.678 52.005,111.605 50.380 C 111.533 48.755,111.533 47.389,111.607 47.344 C 111.839 47.200,111.756 37.345,111.523 37.345 C 111.387 37.345,111.390 37.240,111.530 37.064 C 111.653 36.909,111.719 36.580,111.677 36.333 C 111.576 35.729,111.568 20.302,111.670 19.516 C 111.713 19.176,111.656 18.898,111.542 18.898 C 111.428 18.898,111.414 18.771,111.510 18.616 C 111.782 18.183,111.824 16.648,111.565 16.648 C 111.438 16.648,111.406 16.533,111.493 16.392 C 111.613 16.197,111.691 12.759,111.600 11.642 C 111.580 11.404,111.379 11.452,110.292 11.951 M251.358 56.580 C 251.360 57.199,251.403 57.425,251.455 57.084 C 251.507 56.742,251.505 56.235,251.452 55.959 C 251.399 55.682,251.356 55.962,251.358 56.580 M251.355 59.843 C 251.355 60.399,251.399 60.627,251.452 60.349 C 251.506 60.070,251.506 59.615,251.452 59.336 C 251.399 59.058,251.355 59.286,251.355 59.843 M246.967 225.360 C 247.371 225.410,247.979 225.409,248.317 225.358 C 248.655 225.306,248.324 225.265,247.582 225.267 C 246.839 225.268,246.563 225.310,246.967 225.360 M92.121 246.682 C 92.121 257.075,92.149 261.294,92.182 256.057 C 92.216 250.820,92.216 242.316,92.182 237.160 C 92.148 232.003,92.121 236.288,92.121 246.682 M161.136 237.063 C 162.466 237.103,164.643 237.103,165.973 237.063 C 167.303 237.023,166.215 236.991,163.555 236.991 C 160.894 236.991,159.806 237.023,161.136 237.063 M204.556 239.708 C 204.559 240.202,204.605 240.378,204.659 240.099 C 204.712 239.819,204.710 239.414,204.654 239.199 C 204.598 238.984,204.554 239.213,204.556 239.708 M263.092 245.669 C 263.092 249.443,263.123 250.987,263.160 249.100 C 263.198 247.213,263.198 244.125,263.160 242.238 C 263.123 240.352,263.092 241.895,263.092 245.669 M252.940 244.094 C 252.940 244.899,252.981 245.228,253.031 244.826 C 253.081 244.424,253.081 243.765,253.031 243.363 C 252.981 242.961,252.940 243.290,252.940 244.094 M252.944 247.244 C 252.944 248.172,252.984 248.552,253.032 248.088 C 253.081 247.624,253.081 246.864,253.032 246.400 C 252.984 245.936,252.944 246.316,252.944 247.244 M204.561 253.768 C 204.561 254.325,204.605 254.553,204.658 254.274 C 204.712 253.996,204.712 253.540,204.658 253.262 C 204.605 252.984,204.561 253.211,204.561 253.768 M160.124 255.727 C 160.402 255.780,160.858 255.780,161.136 255.727 C 161.415 255.673,161.187 255.629,160.630 255.629 C 160.073 255.629,159.845 255.673,160.124 255.727 M163.498 255.735 C 164.272 255.779,165.537 255.779,166.310 255.735 C 167.084 255.691,166.451 255.655,164.904 255.655 C 163.358 255.655,162.725 255.691,163.498 255.735 M173.400 260.452 C 173.680 260.505,174.084 260.503,174.300 260.447 C 174.515 260.391,174.286 260.347,173.791 260.349 C 173.296 260.352,173.120 260.398,173.400 260.452 M173.960 267.647 C 174.176 267.703,174.530 267.703,174.747 267.647 C 174.963 267.590,174.786 267.544,174.353 267.544 C 173.920 267.544,173.743 267.590,173.960 267.647 M95.613 284.210 C 95.613 284.249,95.942 284.578,96.344 284.941 L 97.075 285.602 96.415 284.871 C 95.799 284.189,95.613 284.036,95.613 284.210 M109.618 288.807 C 111.690 288.844,115.082 288.844,117.154 288.807 C 119.227 288.770,117.531 288.740,113.386 288.740 C 109.241 288.740,107.545 288.770,109.618 288.807 " stroke="none" fill="#fb9344" fill-rule="evenodd"></path><path id="path3" d="M161.924 11.417 C 186.825 11.449,227.573 11.449,252.475 11.417 C 277.376 11.386,257.002 11.360,207.199 11.360 C 157.396 11.360,137.022 11.386,161.924 11.417 M199.364 54.612 C 208.851 54.644,224.441 54.644,234.009 54.612 C 243.578 54.579,235.816 54.553,216.760 54.553 C 197.705 54.553,189.877 54.579,199.364 54.612 M146.344 206.307 C 144.241 206.374,180.534 206.438,226.997 206.450 C 273.459 206.462,311.322 206.431,311.136 206.382 C 310.616 206.243,150.683 206.171,146.344 206.307 " stroke="none" fill="#fb740d" fill-rule="evenodd"></path><path id="path4" d="M251.346 58.268 C 251.346 58.701,251.392 58.878,251.449 58.661 C 251.505 58.445,251.505 58.091,251.449 57.874 C 251.392 57.657,251.346 57.835,251.346 58.268 M111.472 132.283 C 111.472 173.178,111.498 189.907,111.530 169.460 C 111.561 149.013,111.561 115.554,111.530 95.107 C 111.498 74.660,111.472 91.389,111.472 132.283 " stroke="none" fill="#fc8c3c" fill-rule="evenodd"></path></g></svg>